<svg width="6701" height="1291" viewBox="0 0 6701 1291" fill="none" xmlns="http://www.w3.org/2000/svg">
<path d="M2690 922C2663.33 922 2638.67 917.667 2616 909C2593.67 900 2574.17 887.5 2557.5 871.5C2541.17 855.167 2528.33 836.167 2519 814.5C2509.67 792.833 2505 769 2505 743C2505 717 2509.67 693.167 2519 671.5C2528.33 649.833 2541.33 631 2558 615C2574.67 598.667 2594.17 586.167 2616.5 577.5C2639.17 568.5 2663.83 564 2690.5 564C2717.5 564 2742.33 568.667 2765 578C2788 587 2807.5 600.5 2823.5 618.5L2791 650C2777.67 636 2762.67 625.667 2746 619C2729.33 612 2711.5 608.5 2692.5 608.5C2672.83 608.5 2654.5 611.833 2637.5 618.5C2620.83 625.167 2606.33 634.5 2594 646.5C2581.67 658.5 2572 672.833 2565 689.5C2558.33 705.833 2555 723.667 2555 743C2555 762.333 2558.33 780.333 2565 797C2572 813.333 2581.67 827.5 2594 839.5C2606.33 851.5 2620.83 860.833 2637.5 867.5C2654.5 874.167 2672.83 877.5 2692.5 877.5C2711.5 877.5 2729.33 874.167 2746 867.5C2762.67 860.5 2777.67 849.833 2791 835.5L2823.5 867C2807.5 885 2788 898.667 2765 908C2742.33 917.333 2717.33 922 2690 922ZM2990.1 921C2963.43 921 2939.76 915.167 2919.1 903.5C2898.43 891.833 2882.1 875.833 2870.1 855.5C2858.1 834.833 2852.1 811.5 2852.1 785.5C2852.1 759.167 2858.1 735.833 2870.1 715.5C2882.1 695.167 2898.43 679.333 2919.1 668C2939.76 656.333 2963.43 650.5 2990.1 650.5C3016.43 650.5 3039.93 656.333 3060.6 668C3081.6 679.333 3097.93 695.167 3109.6 715.5C3121.6 735.5 3127.6 758.833 3127.6 785.5C3127.6 811.833 3121.6 835.167 3109.6 855.5C3097.93 875.833 3081.6 891.833 3060.6 903.5C3039.93 915.167 3016.43 921 2990.1 921ZM2990.1 879C3007.1 879 3022.26 875.167 3035.6 867.5C3049.26 859.833 3059.93 849 3067.6 835C3075.26 820.667 3079.1 804.167 3079.1 785.5C3079.1 766.5 3075.26 750.167 3067.6 736.5C3059.93 722.5 3049.26 711.667 3035.6 704C3022.26 696.333 3007.1 692.5 2990.1 692.5C2973.1 692.5 2957.93 696.333 2944.6 704C2931.26 711.667 2920.6 722.5 2912.6 736.5C2904.6 750.167 2900.6 766.5 2900.6 785.5C2900.6 804.167 2904.6 820.667 2912.6 835C2920.6 849 2931.26 859.833 2944.6 867.5C2957.93 875.167 2973.1 879 2990.1 879ZM3303.48 921C3277.81 921 3254.81 915.333 3234.48 904C3214.48 892.667 3198.65 876.833 3186.98 856.5C3175.31 836.167 3169.48 812.5 3169.48 785.5C3169.48 758.5 3175.31 735 3186.98 715C3198.65 694.667 3214.48 678.833 3234.48 667.5C3254.81 656.167 3277.81 650.5 3303.48 650.5C3325.81 650.5 3345.98 655.5 3363.98 665.5C3381.98 675.5 3396.31 690.5 3406.98 710.5C3417.98 730.5 3423.48 755.5 3423.48 785.5C3423.48 815.5 3418.15 840.5 3407.48 860.5C3397.15 880.5 3382.98 895.667 3364.98 906C3346.98 916 3326.48 921 3303.48 921ZM3307.48 879C3324.15 879 3339.15 875.167 3352.48 867.5C3366.15 859.833 3376.81 849 3384.48 835C3392.48 820.667 3396.48 804.167 3396.48 785.5C3396.48 766.5 3392.48 750.167 3384.48 736.5C3376.81 722.5 3366.15 711.667 3352.48 704C3339.15 696.333 3324.15 692.5 3307.48 692.5C3290.48 692.5 3275.31 696.333 3261.98 704C3248.65 711.667 3237.98 722.5 3229.98 736.5C3221.98 750.167 3217.98 766.5 3217.98 785.5C3217.98 804.167 3221.98 820.667 3229.98 835C3237.98 849 3248.65 859.833 3261.98 867.5C3275.31 875.167 3290.48 879 3307.48 879ZM3397.98 918V846.5L3400.98 785L3395.98 723.5V547H3443.98V918H3397.98ZM3652.8 921C3624.47 921 3599.47 915.167 3577.8 903.5C3556.47 891.833 3539.8 875.833 3527.8 855.5C3516.13 835.167 3510.3 811.833 3510.3 785.5C3510.3 759.167 3515.97 735.833 3527.3 715.5C3538.97 695.167 3554.8 679.333 3574.8 668C3595.13 656.333 3617.97 650.5 3643.3 650.5C3668.97 650.5 3691.63 656.167 3711.3 667.5C3730.97 678.833 3746.3 694.833 3757.3 715.5C3768.63 735.833 3774.3 759.667 3774.3 787C3774.3 789 3774.13 791.333 3773.8 794C3773.8 796.667 3773.63 799.167 3773.3 801.5H3547.8V767H3748.3L3728.8 779C3729.13 762 3725.63 746.833 3718.3 733.5C3710.97 720.167 3700.8 709.833 3687.8 702.5C3675.13 694.833 3660.3 691 3643.3 691C3626.63 691 3611.8 694.833 3598.8 702.5C3585.8 709.833 3575.63 720.333 3568.3 734C3560.97 747.333 3557.3 762.667 3557.3 780V788C3557.3 805.667 3561.3 821.5 3569.3 835.5C3577.63 849.167 3589.13 859.833 3603.8 867.5C3618.47 875.167 3635.3 879 3654.3 879C3669.97 879 3684.13 876.333 3696.8 871C3709.8 865.667 3721.13 857.667 3730.8 847L3757.3 878C3745.3 892 3730.3 902.667 3712.3 910C3694.63 917.333 3674.8 921 3652.8 921Z" fill="white"/>
<path d="M4041.6 961C4008.8 961 3977.4 956.4 3947.4 947.2C3917.4 937.6 3893.6 925.4 3876 910.6L3903 850C3919.8 863.2 3940.6 874.2 3965.4 883C3990.2 891.8 4015.6 896.2 4041.6 896.2C4063.6 896.2 4081.4 893.8 4095 889C4108.6 884.2 4118.6 877.8 4125 869.8C4131.4 861.4 4134.6 852 4134.6 841.6C4134.6 828.8 4130 818.6 4120.8 811C4111.6 803 4099.6 796.8 4084.8 792.4C4070.4 787.6 4054.2 783.2 4036.2 779.2C4018.6 775.2 4000.8 770.6 3982.8 765.4C3965.2 759.8 3949 752.8 3934.2 744.4C3919.8 735.6 3908 724 3898.8 709.6C3889.6 695.2 3885 676.8 3885 654.4C3885 631.6 3891 610.8 3903 592C3915.4 572.8 3934 557.6 3958.8 546.4C3984 534.8 4015.8 529 4054.2 529C4079.4 529 4104.4 532.2 4129.2 538.6C4154 545 4175.6 554.2 4194 566.2L4169.4 626.8C4150.6 615.6 4131.2 607.4 4111.2 602.2C4091.2 596.6 4072 593.8 4053.6 593.8C4032 593.8 4014.4 596.4 4000.8 601.6C3987.6 606.8 3977.8 613.6 3971.4 622C3965.4 630.4 3962.4 640 3962.4 650.8C3962.4 663.6 3966.8 674 3975.6 682C3984.8 689.6 3996.6 695.6 4011 700C4025.8 704.4 4042.2 708.8 4060.2 713.2C4078.2 717.2 4096 721.8 4113.6 727C4131.6 732.2 4147.8 739 4162.2 747.4C4177 755.8 4188.8 767.2 4197.6 781.6C4206.8 796 4211.4 814.2 4211.4 836.2C4211.4 858.6 4205.2 879.4 4192.8 898.6C4180.8 917.4 4162.2 932.6 4137 944.2C4111.8 955.4 4080 961 4041.6 961ZM4432.14 959.2C4396.54 959.2 4365.34 952.2 4338.54 938.2C4312.14 923.8 4291.54 904.2 4276.74 879.4C4262.34 854.6 4255.14 826.4 4255.14 794.8C4255.14 762.8 4262.14 734.6 4276.14 710.2C4290.54 685.4 4310.14 666 4334.94 652C4360.14 638 4388.74 631 4420.74 631C4451.94 631 4479.74 637.8 4504.14 651.4C4528.54 665 4547.74 684.2 4561.74 709C4575.74 733.8 4582.74 763 4582.74 796.6C4582.74 799.8 4582.54 803.4 4582.14 807.4C4582.14 811.4 4581.94 815.2 4581.54 818.8H4314.54V769H4541.94L4512.54 784.6C4512.94 766.2 4509.14 750 4501.14 736C4493.14 722 4482.14 711 4468.14 703C4454.54 695 4438.74 691 4420.74 691C4402.34 691 4386.14 695 4372.14 703C4358.54 711 4347.74 722.2 4339.74 736.6C4332.14 750.6 4328.34 767.2 4328.34 786.4V798.4C4328.34 817.6 4332.74 834.6 4341.54 849.4C4350.34 864.2 4362.74 875.6 4378.74 883.6C4394.74 891.6 4413.14 895.6 4433.94 895.6C4451.94 895.6 4468.14 892.8 4482.54 887.2C4496.94 881.6 4509.74 872.8 4520.94 860.8L4561.14 907C4546.74 923.8 4528.54 936.8 4506.54 946C4484.94 954.8 4460.14 959.2 4432.14 959.2ZM4836.59 631C4862.19 631 4884.99 636 4904.99 646C4925.39 656 4941.39 671.4 4952.99 692.2C4964.59 712.6 4970.39 739 4970.39 771.4V955H4895.39V781C4895.39 752.6 4888.59 731.4 4874.99 717.4C4861.79 703.4 4843.19 696.4 4819.19 696.4C4801.59 696.4 4785.99 700 4772.39 707.2C4758.79 714.4 4748.19 725.2 4740.59 739.6C4733.39 753.6 4729.79 771.4 4729.79 793V955H4654.79V634.6H4726.19V721L4713.59 694.6C4724.79 674.2 4740.99 658.6 4762.19 647.8C4783.79 636.6 4808.59 631 4836.59 631ZM5164.53 959.2C5137.73 959.2 5111.93 955.8 5087.13 949C5062.73 941.8 5043.33 933.2 5028.93 923.2L5057.73 866.2C5072.13 875.4 5089.33 883 5109.33 889C5129.33 895 5149.33 898 5169.33 898C5192.93 898 5209.93 894.8 5220.33 888.4C5231.13 882 5236.53 873.4 5236.53 862.6C5236.53 853.8 5232.93 847.2 5225.73 842.8C5218.53 838 5209.13 834.4 5197.53 832C5185.93 829.6 5172.93 827.4 5158.53 825.4C5144.53 823.4 5130.33 820.8 5115.93 817.6C5101.93 814 5089.13 809 5077.53 802.6C5065.93 795.8 5056.53 786.8 5049.33 775.6C5042.13 764.4 5038.53 749.6 5038.53 731.2C5038.53 710.8 5044.33 693.2 5055.93 678.4C5067.53 663.2 5083.73 651.6 5104.53 643.6C5125.73 635.2 5150.73 631 5179.53 631C5201.13 631 5222.93 633.4 5244.93 638.2C5266.93 643 5285.13 649.8 5299.53 658.6L5270.73 715.6C5255.53 706.4 5240.13 700.2 5224.53 697C5209.33 693.4 5194.13 691.6 5178.93 691.6C5156.13 691.6 5139.13 695 5127.93 701.8C5117.13 708.6 5111.73 717.2 5111.73 727.6C5111.73 737.2 5115.33 744.4 5122.53 749.2C5129.73 754 5139.13 757.8 5150.73 760.6C5162.33 763.4 5175.13 765.8 5189.13 767.8C5203.53 769.4 5217.73 772 5231.73 775.6C5245.73 779.2 5258.53 784.2 5270.13 790.6C5282.13 796.6 5291.73 805.2 5298.93 816.4C5306.13 827.6 5309.73 842.2 5309.73 860.2C5309.73 880.2 5303.73 897.6 5291.73 912.4C5280.13 927.2 5263.53 938.8 5241.93 947.2C5220.33 955.2 5194.53 959.2 5164.53 959.2ZM5518.32 959.2C5485.52 959.2 5456.32 952.2 5430.72 938.2C5405.12 923.8 5384.92 904.2 5370.12 879.4C5355.32 854.6 5347.92 826.4 5347.92 794.8C5347.92 762.8 5355.32 734.6 5370.12 710.2C5384.92 685.4 5405.12 666 5430.72 652C5456.32 638 5485.52 631 5518.32 631C5551.52 631 5580.92 638 5606.52 652C5632.52 666 5652.72 685.2 5667.12 709.6C5681.92 734 5689.32 762.4 5689.32 794.8C5689.32 826.4 5681.92 854.6 5667.12 879.4C5652.72 904.2 5632.52 923.8 5606.52 938.2C5580.92 952.2 5551.52 959.2 5518.32 959.2ZM5518.32 895C5536.72 895 5553.12 891 5567.52 883C5581.92 875 5593.12 863.4 5601.12 848.2C5609.52 833 5613.72 815.2 5613.72 794.8C5613.72 774 5609.52 756.2 5601.12 741.4C5593.12 726.2 5581.92 714.6 5567.52 706.6C5553.12 698.6 5536.92 694.6 5518.92 694.6C5500.52 694.6 5484.12 698.6 5469.72 706.6C5455.72 714.6 5444.52 726.2 5436.12 741.4C5427.72 756.2 5423.52 774 5423.52 794.8C5423.52 815.2 5427.72 833 5436.12 848.2C5444.52 863.4 5455.72 875 5469.72 883C5484.12 891 5500.32 895 5518.32 895ZM5761.04 955V634.6H5832.44V722.8L5824.04 697C5833.64 675.4 5848.64 659 5869.04 647.8C5889.84 636.6 5915.64 631 5946.44 631V702.4C5943.24 701.6 5940.24 701.2 5937.44 701.2C5934.64 700.8 5931.84 700.6 5929.04 700.6C5900.64 700.6 5878.04 709 5861.24 725.8C5844.44 742.2 5836.04 766.8 5836.04 799.6V955H5761.04Z" fill="#A40101"/>
<path d="M1229.07 944.625C1194.2 944.625 1160.92 939.862 1129.23 930.334C1098.06 920.807 1073.5 909.162 1055.54 895.4L1059.14 888.545C1074.12 860.026 1110.97 850.779 1141.26 861.751C1145.32 863.224 1149.5 864.648 1153.79 866.023C1180.2 874.492 1207.14 878.727 1234.61 878.727C1270.01 878.727 1295.36 873.698 1310.68 863.641C1326.53 853.585 1334.45 839.558 1334.45 821.562C1334.45 808.329 1329.7 798.008 1320.19 790.597C1310.68 783.187 1298 777.629 1282.15 773.924C1266.84 770.219 1249.67 767.043 1230.65 764.397C1211.63 761.221 1192.62 757.516 1173.6 753.281C1154.58 748.518 1137.15 742.166 1121.3 734.226C1105.45 725.757 1092.78 714.377 1083.27 700.086C1073.76 685.266 1069.01 665.681 1069.01 641.333C1069.01 615.926 1076.14 593.696 1090.4 574.641C1104.66 555.586 1124.74 541.03 1150.62 530.973C1177.03 520.387 1208.2 515.094 1244.12 515.094C1271.59 515.094 1299.32 518.534 1327.32 525.415C1355.85 531.767 1379.09 541.03 1397.05 553.204L1384.9 575.776C1373.99 596.029 1348.09 601.952 1326.57 593.84C1319.52 591.184 1312.38 589.019 1305.13 587.344C1284.53 582.58 1263.93 580.198 1243.33 580.198C1210.05 580.198 1185.22 585.756 1168.85 596.871C1152.47 607.458 1144.28 621.22 1144.28 638.157C1144.28 652.449 1149.04 663.564 1158.54 671.504C1168.58 678.914 1181.26 684.736 1196.58 688.971C1212.43 693.205 1229.86 696.91 1248.88 700.086C1267.89 702.733 1286.91 706.438 1305.93 711.201C1324.94 715.436 1342.11 721.523 1357.43 729.463C1373.28 737.402 1385.96 748.518 1395.46 762.809C1405.5 777.1 1410.52 796.155 1410.52 819.974C1410.52 845.38 1403.12 867.347 1388.33 885.872C1373.54 904.398 1352.68 918.954 1325.74 929.54C1298.79 939.597 1266.57 944.625 1229.07 944.625Z" fill="#A40101"/>
<path d="M1247.63 1111.87C1192.07 1111.87 1140.68 1102.84 1093.45 1084.78C1046.92 1066.03 1006.3 1039.99 971.572 1006.66C937.542 972.626 910.805 933.041 891.359 887.9C871.914 842.759 862.191 793.104 862.191 738.935C862.191 684.765 871.914 635.11 891.359 589.969C910.805 544.828 937.89 505.59 972.613 472.255C1007.34 438.226 1047.96 412.183 1094.49 394.126C1141.72 375.375 1193.11 366 1248.67 366C1304.92 366 1356.66 375.723 1403.88 395.168C1451.8 413.919 1492.43 442.045 1525.77 479.547L1485.58 518.496C1470.42 533.192 1446.35 532.441 1429.91 519.188C1409.62 502.837 1387.75 489.97 1364.3 480.589C1329.58 466.005 1292.42 458.713 1252.84 458.713C1211.86 458.713 1173.66 465.658 1138.25 479.547C1103.52 493.437 1073.31 512.882 1047.62 537.883C1021.92 562.884 1001.78 592.747 987.197 627.471C973.308 661.5 966.363 698.655 966.363 738.935C966.363 779.214 973.308 816.716 987.197 851.44C1001.78 885.469 1021.92 914.985 1047.62 939.986C1073.31 964.987 1103.52 984.433 1138.25 998.322C1173.66 1012.21 1211.86 1019.16 1252.84 1019.16C1292.42 1019.16 1329.58 1012.21 1364.3 998.322C1370.94 995.531 1377.46 992.46 1383.86 989.109C1429.7 965.073 1488.6 961.255 1525.77 997.28V997.28C1492.43 1034.78 1451.8 1063.26 1403.88 1082.7C1356.66 1102.15 1304.57 1111.87 1247.63 1111.87Z" fill="white"/>
<path d="M1611.4 607.391L1778.24 776.008L1611.4 944.626" stroke="white" stroke-width="77" stroke-linecap="square"/>
<path d="M1865.16 656.016L1986 776.855L1865.16 897.695" stroke="white" stroke-width="77" stroke-linecap="square"/>
<path d="M523.84 656.016L403 776.855L523.84 897.695" stroke="white" stroke-width="77" stroke-linecap="square"/>
<path d="M777.604 607.391L610.761 776.008L777.604 944.626" stroke="white" stroke-width="77" stroke-linecap="square"/>
</svg>
